<svg width="83" height="34" viewBox="0 0 83 34" fill="none" xmlns="http://www.w3.org/2000/svg">
<path d="M5.02626 28.2903L3.60392 33.1629C3.5298 33.432 3.42384 33.632 3.28604 33.7631C3.14825 33.8941 2.94493 33.9599 2.67584 33.9599C2.44719 33.9599 2.26385 33.8976 2.12582 33.7733C1.98826 33.6488 1.88207 33.4487 1.80818 33.1729L0.26478 27.1506C0.231086 26.9621 0.214355 26.8343 0.214355 26.7671C0.214355 26.5654 0.286622 26.4005 0.431156 26.2729C0.575922 26.1451 0.759029 26.0812 0.980941 26.0812C1.15592 26.0812 1.30881 26.1316 1.4401 26.2325C1.57116 26.3333 1.65365 26.4611 1.68711 26.6159L2.78668 31.9625L4.3001 26.7974C4.36052 26.5754 4.44789 26.4005 4.56221 26.2729C4.67654 26.1451 4.84803 26.0812 5.07668 26.0812C5.32555 26.0812 5.50726 26.1416 5.62158 26.2627C5.73568 26.3837 5.8198 26.5485 5.8737 26.7569L7.24561 31.9927L8.50668 26.5754C8.54711 26.4274 8.62612 26.308 8.7437 26.2171C8.86127 26.1265 9.00441 26.0812 9.17242 26.0812C9.37435 26.0812 9.54072 26.1432 9.67178 26.2678C9.80283 26.3921 9.8686 26.5485 9.8686 26.7369C9.8686 26.8176 9.84838 26.9252 9.80818 27.0597L8.09306 33.1526C7.94504 33.6908 7.65249 33.9599 7.2154 33.9599C6.72441 33.9599 6.41513 33.6941 6.28732 33.1629L5.56094 30.3282L5.02626 28.2903Z" fill="white"/>
<path d="M21.4503 29.3799C21.6253 29.3799 21.7715 29.4371 21.889 29.5514C22.0069 29.6658 22.0656 29.8068 22.0656 29.975C22.0656 30.143 22.0052 30.2862 21.8842 30.4038C21.7631 30.5216 21.6186 30.5804 21.4503 30.5804H18.888V32.6282H21.7833C21.9581 32.6282 22.1045 32.687 22.2223 32.8048C22.3396 32.9224 22.3986 33.0653 22.3986 33.2335C22.3986 33.4018 22.3382 33.5447 22.2169 33.6623C22.0961 33.7798 21.9516 33.8389 21.7833 33.8389H18.1718C17.9699 33.8389 17.8 33.7682 17.6623 33.6269C17.5245 33.4857 17.4554 33.3177 17.4554 33.1225V26.9387C17.4554 26.7435 17.5245 26.5755 17.6623 26.4342C17.8 26.2929 17.9699 26.2223 18.1718 26.2223H21.7731C21.9413 26.2223 22.0859 26.2813 22.2069 26.3989C22.328 26.5165 22.3886 26.6596 22.3886 26.8276C22.3886 26.9958 22.328 27.1387 22.2069 27.2565C22.0859 27.3739 21.9413 27.4329 21.7731 27.4329H18.888V29.3799H21.4503Z" fill="white"/>
<path d="M29.819 33.5664C29.7483 33.4655 29.7133 33.3477 29.7133 33.2134C29.7133 33.0721 29.7518 32.9476 29.8292 32.8402C29.9066 32.7324 30.0091 32.6653 30.1369 32.6383C30.231 32.6181 30.3283 32.6114 30.4294 32.6181C30.4764 32.6248 30.5472 32.6416 30.6411 32.6685C30.8296 32.709 30.9674 32.7292 31.0547 32.7292C31.4181 32.7292 31.6954 32.655 31.8871 32.5073C32.0788 32.3592 32.1745 32.0767 32.1745 31.6598V27.4832H30.4798C30.3116 27.4832 30.1687 27.4212 30.0509 27.2966C29.9333 27.1723 29.8745 27.0226 29.8745 26.8479C29.8745 26.6797 29.9333 26.5335 30.0509 26.409C30.1687 26.2846 30.3116 26.2224 30.4798 26.2224H33.0017C33.17 26.2224 33.3129 26.2828 33.4305 26.4041C33.5483 26.5249 33.6071 26.6694 33.6071 26.8377V31.69C33.6071 32.4768 33.3835 33.057 32.9362 33.4302C32.4891 33.8034 31.9089 33.9902 31.196 33.9902C30.7991 33.9902 30.4362 33.9228 30.1067 33.7883C29.9856 33.7414 29.8896 33.6675 29.819 33.5664Z" fill="white"/>
<path d="M47.1658 33.9598C46.9641 33.9598 46.7943 33.8911 46.6562 33.753C46.5184 33.6152 46.4494 33.4454 46.4494 33.2437V30.5501H43.2111V33.2437C43.2111 33.4454 43.1407 33.6152 42.9994 33.753C42.8582 33.8911 42.6902 33.9598 42.495 33.9598C42.2933 33.9598 42.1234 33.8911 41.9856 33.753C41.8476 33.6152 41.7788 33.4454 41.7788 33.2437V26.7975C41.7788 26.6023 41.8476 26.4343 41.9856 26.2931C42.1234 26.1518 42.2933 26.0811 42.495 26.0811C42.6902 26.0811 42.8582 26.1518 42.9994 26.2931C43.1407 26.4343 43.2111 26.6023 43.2111 26.7975V29.279H46.4494V26.7975C46.4494 26.6023 46.5184 26.4343 46.6562 26.2931C46.7943 26.1518 46.9641 26.0811 47.1658 26.0811C47.3608 26.0811 47.5288 26.1518 47.6701 26.2931C47.8113 26.4343 47.882 26.6023 47.882 26.7975V33.2437C47.882 33.4454 47.8113 33.6152 47.6701 33.753C47.5288 33.8911 47.3608 33.9598 47.1658 33.9598Z" fill="white"/>
<path d="M58.6465 27.8869L57.547 31.0546H59.6555L58.6465 27.8869ZM56.7097 33.4756C56.6558 33.6304 56.5733 33.7514 56.4625 33.8388C56.3514 33.9262 56.2155 33.9701 56.054 33.9701C55.8655 33.9701 55.7043 33.9027 55.5697 33.7682C55.4352 33.6336 55.368 33.4724 55.368 33.2839C55.368 33.1831 55.3883 33.0822 55.4285 32.9814L57.7082 26.9788C57.8161 26.6897 57.9439 26.4711 58.0916 26.3233C58.2397 26.1753 58.4481 26.1011 58.7172 26.1011C59.0062 26.1011 59.2233 26.1753 59.3678 26.3233C59.5123 26.4711 59.6318 26.683 59.7259 26.9588L61.8242 32.9005C61.8646 33.0285 61.8848 33.1326 61.8848 33.2133C61.8848 33.4219 61.8109 33.6002 61.6629 33.7479C61.5149 33.896 61.3367 33.9701 61.1282 33.9701C60.96 33.9701 60.8087 33.9197 60.6742 33.8186C60.5399 33.7177 60.449 33.5867 60.4019 33.4252L60.0184 32.2046H57.1536L56.7097 33.4756Z" fill="white"/>
<path d="M71.5951 33.748C71.4571 33.8893 71.2872 33.96 71.0857 33.96C70.8906 33.96 70.7226 33.8893 70.5813 33.748C70.44 33.6068 70.3694 33.4388 70.3694 33.2436V27.4532H68.6442C68.4762 27.4532 68.3315 27.3925 68.2106 27.2714C68.0896 27.1504 68.0289 27.0059 68.0289 26.8376C68.0289 26.6696 68.0896 26.5251 68.2106 26.404C68.3315 26.283 68.4762 26.2225 68.6442 26.2225H73.4966C73.6648 26.2225 73.8077 26.283 73.9255 26.404C74.0431 26.5251 74.1019 26.6696 74.1019 26.8376C74.1019 27.0059 74.0431 27.1504 73.9255 27.2714C73.8077 27.3925 73.6648 27.4532 73.4966 27.4532H71.8019V33.2436C71.8019 33.4388 71.7329 33.6068 71.5951 33.748Z" fill="white"/>
<path d="M82.2838 33.9598C82.0821 33.9598 81.9122 33.8911 81.7744 33.753C81.6364 33.6152 81.5676 33.4454 81.5676 33.2437V26.7975C81.5676 26.6023 81.6364 26.4343 81.7744 26.2931C81.9122 26.1518 82.0821 26.0811 82.2838 26.0811C82.4787 26.0811 82.647 26.1518 82.7883 26.2931C82.9293 26.4343 83 26.6023 83 26.7975V33.2437C83 33.4454 82.9293 33.6152 82.7883 33.753C82.647 33.8911 82.4787 33.9598 82.2838 33.9598Z" fill="white"/>
<path d="M79.4375 11.0764C78.8703 11.3283 77.9752 11.4538 76.7539 11.4538C75.5107 11.4538 74.6321 11.2788 74.12 10.9291C73.6078 10.5808 73.3503 9.98032 73.3503 9.12938C73.3503 8.12578 73.6836 7.31342 74.3486 6.69253C75.015 6.07001 75.8811 5.75887 76.9509 5.75887C78.2589 5.75887 79.1923 6.20641 79.7486 7.10126C80.3049 7.99495 80.594 8.97672 80.6147 10.0465C80.3972 10.4829 80.0047 10.8259 79.4375 11.0764ZM81.4656 4.81034C80.4838 3.30528 79.0229 2.55217 77.0817 2.55217C75.925 2.55217 74.8884 2.84124 73.9726 3.41961C73.0571 3.99797 72.3426 4.79384 71.8288 5.80836C71.3167 6.82312 71.0606 7.97427 71.0606 9.2602C71.0606 11.0501 71.497 12.3967 72.3686 13.3013C73.2416 14.2073 74.584 14.6605 76.3946 14.6605C78.6844 14.6605 80.1576 13.8632 80.8117 12.2715V12.3045C80.6588 16.9502 78.4999 19.2744 74.3321 19.2744C73.5692 19.2744 72.7513 19.1436 71.8785 18.8805C71.7035 18.8378 71.5618 18.8157 71.4531 18.8157C71.0827 18.8157 70.7659 18.9521 70.5043 19.2247C70.2426 19.4975 70.1118 19.8416 70.1118 20.2559C70.1118 20.6045 70.2261 20.921 70.4548 21.2047C70.6846 21.4884 70.9834 21.7168 71.3552 21.8918C72.2268 22.284 73.3187 22.4811 74.6267 22.4811C76.3505 22.4811 77.8334 22.0335 79.0768 21.1387C80.32 20.245 81.2755 18.9797 81.9406 17.3425C82.6056 15.7068 82.9388 13.8095 82.9388 11.6492V10.439C82.9388 8.19177 82.4474 6.31655 81.4656 4.81034Z" fill="#F19A07"/>
<path d="M42.2999 18.7442C42.2476 18.8586 42.1346 18.9259 42.0175 18.9259C41.9736 18.9259 41.9309 18.9178 41.8881 18.8985C41.7326 18.8281 41.6636 18.6436 41.734 18.4868C41.939 18.035 42.048 17.5313 42.048 17.0314C42.048 16.9613 42.0466 16.8909 42.0424 16.8207C42.0315 16.6501 42.1621 16.5028 42.3343 16.4916C42.5036 16.4821 42.6524 16.6129 42.6619 16.7835C42.6675 16.8662 42.6689 16.9487 42.6689 17.0314C42.6689 17.6277 42.545 18.2044 42.2999 18.7442ZM41.4117 15.0128C41.2946 14.8462 41.1626 14.6894 41.0179 14.5449L40.5527 14.0794C40.4314 13.9581 40.4314 13.7613 40.5527 13.6402C40.6737 13.5189 40.8706 13.5189 40.9919 13.6402L41.4573 14.1054C41.6265 14.2748 41.7821 14.4607 41.9199 14.655C42.0189 14.7953 41.9845 14.9896 41.8442 15.0886C41.7905 15.1258 41.7285 15.1451 41.6664 15.1451C41.5688 15.1451 41.4724 15.0984 41.4117 15.0128ZM40.8445 20.464C40.2882 20.8397 39.6411 21.0768 38.9705 21.1483C38.9596 21.1483 38.9486 21.1497 38.9375 21.1497C38.7806 21.1497 38.6456 21.0312 38.6291 20.8716C38.6112 20.7008 38.7351 20.5479 38.9045 20.53C39.4745 20.4693 40.0252 20.2683 40.4962 19.9505C40.6394 19.854 40.8322 19.8912 40.927 20.0329C41.0235 20.1761 40.9863 20.369 40.8445 20.464ZM37.1626 20.6222C37.1104 20.7338 36.9988 20.8 36.8833 20.8C36.8378 20.8 36.7923 20.7902 36.7497 20.7696C36.3243 20.5672 35.9388 20.2946 35.6041 19.9586C35.461 19.8168 35.3288 19.6626 35.2089 19.5029C35.1071 19.3651 35.1345 19.1711 35.2723 19.0691C35.4099 18.9659 35.6055 18.9947 35.7073 19.1311C35.8093 19.2675 35.9223 19.3983 36.0433 19.5194C36.3284 19.8045 36.6561 20.0371 37.0167 20.2093C37.171 20.2823 37.237 20.4682 37.1626 20.6222ZM34.7435 17.6786C34.7339 17.68 34.7258 17.68 34.716 17.68C34.5578 17.68 34.4214 17.5587 34.4077 17.3963C34.3965 17.2752 34.3912 17.1525 34.3912 17.0314C34.3912 16.4765 34.4999 15.9367 34.7146 15.4274C34.7806 15.2689 34.9626 15.1946 35.1208 15.2608C35.2791 15.3268 35.3537 15.5085 35.2874 15.667C35.1043 16.1006 35.0121 16.559 35.0121 17.0314C35.0121 17.1346 35.0176 17.2394 35.0258 17.3426C35.0409 17.5134 34.9142 17.6635 34.7435 17.6786ZM36.0489 13.6609L37.365 12.3432C37.4863 12.2221 37.6832 12.2221 37.8044 12.3432C37.9255 12.4642 37.9255 12.6613 37.8044 12.7823L36.4881 14.1001C36.426 14.1605 36.3477 14.191 36.2678 14.191C36.1879 14.191 36.1093 14.1605 36.0489 14.1001C35.9276 13.9788 35.9262 13.782 36.0489 13.6609ZM38.8578 10.8506L40.1753 9.53289C40.2966 9.41182 40.4934 9.41182 40.6145 9.53289C40.7358 9.65418 40.7358 9.851 40.6145 9.97206L39.297 11.2898C39.2363 11.3505 39.1578 11.3807 39.0781 11.3807C38.9981 11.3807 38.9196 11.3505 38.8578 11.2898C38.7379 11.1688 38.7365 10.9717 38.8578 10.8506ZM40.492 3.28332C40.3503 3.18688 40.3131 2.99425 40.4081 2.85227C40.5043 2.70914 40.6972 2.67195 40.839 2.76699C41.0606 2.91571 41.2672 3.08789 41.4573 3.27635C41.745 3.56425 41.9873 3.8905 42.1774 4.24579C42.2585 4.3959 42.202 4.58435 42.0519 4.66568C42.0052 4.69055 41.9543 4.70286 41.9046 4.70286C41.7945 4.70286 41.6871 4.64361 41.6306 4.53904C41.4682 4.23743 41.263 3.96067 41.0179 3.71576C40.8568 3.55449 40.6807 3.40856 40.492 3.28332ZM42.37 6.11822C42.5422 6.12798 42.6717 6.2753 42.6619 6.44609C42.6233 7.11927 42.4184 7.77734 42.0698 8.35013C42.0122 8.44656 41.9088 8.49884 41.8042 8.49884C41.7491 8.49884 41.6941 8.48513 41.6432 8.45493C41.497 8.36546 41.4503 8.17399 41.5398 8.02806C41.8344 7.54055 42.0094 6.98171 42.0424 6.41031C42.0519 6.23812 42.202 6.10591 42.37 6.11822ZM38.6856 2.68845H38.6733C38.1019 2.66522 37.5249 2.78349 37.0114 3.02864C36.9686 3.04932 36.9231 3.05885 36.8778 3.05885C36.762 3.05885 36.6505 2.99425 36.5982 2.88271C36.5239 2.72842 36.5899 2.54253 36.7441 2.46817C37.3471 2.18049 38.0261 2.0427 38.6965 2.06756C38.8687 2.07453 39.0023 2.21907 38.9953 2.38963C38.9884 2.55763 38.8508 2.68845 38.6856 2.68845ZM36.4909 9.13925C36.6119 9.26032 36.6119 9.45713 36.4909 9.57843C36.4302 9.63885 36.3517 9.66929 36.272 9.66929C36.192 9.66929 36.1121 9.63885 36.0517 9.57843L35.6041 9.12949C35.2874 8.81417 35.0272 8.45353 34.829 8.05827C34.7518 7.90537 34.8139 7.71832 34.9679 7.64117C35.1208 7.56402 35.3067 7.62746 35.3839 7.78013C35.5533 8.11613 35.7735 8.42193 36.0433 8.69171L36.4909 9.13925ZM34.6898 6.18026C34.5192 6.16655 34.3926 6.01505 34.4077 5.84426C34.4655 5.17364 34.6886 4.52115 35.052 3.95789C35.1457 3.81335 35.3383 3.77338 35.4817 3.86563C35.6262 3.95928 35.6674 4.15075 35.5737 4.29529C35.264 4.77304 35.0755 5.32793 35.0258 5.89794C35.0121 6.06036 34.8757 6.18166 34.716 6.18166C34.7077 6.18166 34.6981 6.18166 34.6898 6.18026ZM67.0551 4.38614C65.6588 4.08058 64.4374 3.72668 63.3911 3.32329C62.3433 2.91989 61.2087 2.4117 59.9876 1.80173C58.6782 1.16853 57.5821 0.709829 56.6995 0.42634C55.8156 0.142616 54.8062 0.000871658 53.6718 0.000871658C52.8002 0.000871658 51.9864 0.137039 51.2347 0.409842C50.4816 0.683805 49.8867 0.982632 49.4517 1.31027C48.905 1.72459 48.6324 2.17213 48.6324 2.65128C48.6324 2.84832 48.6875 3.05606 48.7962 3.27356C49.0151 3.6881 49.3525 3.89608 49.811 3.89608C50.008 3.89608 50.2364 3.84101 50.4981 3.73226C51.5886 3.25172 52.6143 3.01214 53.5739 3.01214C54.5778 3.01214 55.5154 3.14831 56.3884 3.42111C57.2612 3.69368 58.3944 4.13565 59.7905 4.74562C61.0132 5.29076 62.2896 5.81544 63.6197 6.31667L62.0982 6.82323L60.6744 7.29819C58.842 7.93163 57.6964 8.31295 57.2393 8.44377C55.4287 9.01122 53.7268 9.41461 52.1337 9.65418C50.5422 9.89515 48.7316 10.0148 46.7021 10.0148H44.0085C43.0888 10.0148 42.2048 10.381 41.5549 11.031L39.7498 12.8374C39.6341 12.9531 39.5419 13.0826 39.4745 13.2215C39.2089 13.7613 39.3009 14.4333 39.7498 14.882L40.1697 15.3021C40.6242 15.7564 40.9063 16.365 40.9133 17.008C40.9203 17.8024 40.5429 18.5377 39.8684 19.0059C39.6067 19.1876 39.3065 19.3128 38.9925 19.3707C38.0673 19.5457 37.1654 19.1904 36.6077 18.4412C36.3793 18.1329 36.2292 17.7708 36.1741 17.3907C36.0626 16.6239 36.3119 15.8817 36.8462 15.3475L42.2599 9.93233C43.2554 8.93686 43.8047 7.61212 43.8047 6.20373C43.8047 4.79511 43.2554 3.47061 42.2599 2.47375C40.0954 0.310621 36.5032 0.423552 34.4888 2.8137C33.7289 3.71715 33.2937 4.8611 33.2593 6.04131C33.2235 7.23499 33.5802 8.37499 34.2713 9.31539L33.8019 9.78501C33.6546 9.93233 33.4547 10.0148 33.247 10.0148H28.7109C27.7951 10.0148 27.0957 9.818 26.6166 9.42553C26.136 9.03306 25.635 8.3571 25.1117 7.39602L24.4246 6.12101C23.8133 5.00843 23.257 4.11357 22.756 3.43761C22.2534 2.76142 21.5828 2.20513 20.743 1.76874C19.903 1.33235 18.8401 1.11345 17.5528 1.11345C16.3521 1.11345 15.2079 1.41344 14.1174 2.01389C13.0255 2.6141 12.143 3.41554 11.4654 4.41914C10.7894 5.42297 10.452 6.49141 10.452 7.62606C10.452 9.21756 10.7839 10.4403 11.4503 11.2912C12.1153 12.1408 13.3423 12.741 15.1308 13.0907C16.5269 13.3523 17.5416 13.5698 18.1737 13.7448C18.8071 13.9195 19.26 14.1317 19.5326 14.3822C19.8051 14.6343 19.9415 14.9882 19.9415 15.4467C19.9415 16.7547 19.2049 17.7197 17.7331 18.3422C16.2599 18.9645 14.0512 19.2743 11.1062 19.2743C9.05597 19.2743 7.43543 19.0788 6.24709 18.6864C5.0576 18.2927 4.20248 17.6495 3.67802 16.7547C3.29647 16.1034 3.05411 15.2787 2.95094 14.2804C2.88076 13.6059 2.30658 13.0977 1.62922 13.106C0.860776 13.1156 0.268701 13.7778 0.33632 14.5435C0.559394 17.0549 1.39917 18.948 2.86008 20.2244C4.58379 21.7292 7.27695 22.481 10.9423 22.481C14.6296 22.481 17.4329 21.8545 19.3522 20.6002C21.2716 19.3458 22.2313 17.5738 22.2313 15.2829C22.2313 13.8866 21.8774 12.7742 21.1684 11.9451C20.4593 11.1162 19.3302 10.527 17.7812 10.1786C17.7868 10.18 17.791 10.1814 17.7949 10.18C17.7426 10.1621 17.4426 10.0864 16.8987 9.94883C15.6113 9.64303 14.7109 9.40346 14.1985 9.22871C13.6864 9.05374 13.3146 8.82532 13.0862 8.5416C12.8561 8.25788 12.7418 7.83241 12.7418 7.26519C12.7418 6.76397 12.9607 6.28901 13.3973 5.84286C13.8323 5.39555 14.4107 5.02911 15.1308 4.74562C15.8509 4.46189 16.5931 4.32015 17.3557 4.32015C18.2287 4.32015 18.9489 4.46747 19.5161 4.76212C20.0833 5.05676 20.5624 5.46015 20.9563 5.97369C21.3488 6.48583 21.8058 7.22267 22.3305 8.18236L23.1482 9.65418C23.6067 10.5051 24.0584 11.1755 24.506 11.6672C24.9533 12.1573 25.5096 12.54 26.1746 12.8128C26.5587 12.9696 27.0035 13.0826 27.5103 13.1485C27.8779 13.1969 28.2771 13.2215 28.7109 13.2215H33.0169C33.9367 13.2215 34.8206 12.8553 35.4705 12.2054L37.2935 10.381C37.4036 10.2709 37.4931 10.147 37.5607 10.0148C37.836 9.47247 37.748 8.7907 37.2935 8.33642L36.8462 7.88888C36.3105 7.35326 36.0612 6.60713 36.1755 5.83752C36.2306 5.46015 36.3807 5.09812 36.6091 4.79232C37.1959 4.00622 38.1595 3.6565 39.1331 3.89329C39.3409 3.94418 39.5419 4.0269 39.7252 4.13704C40.5387 4.62572 40.9754 5.48223 40.9063 6.39102C40.8624 6.97474 40.5885 7.51592 40.1739 7.93024L34.8013 13.3028C33.8044 14.2983 33.2565 15.6228 33.2565 17.0314C33.2565 18.4412 33.8044 19.766 34.8013 20.7614C35.8286 21.7899 37.1794 22.3034 38.5299 22.3034C39.8807 22.3034 41.2314 21.7899 42.2599 20.7614C43.2554 19.766 43.8047 18.4412 43.8047 17.0314C43.8047 15.8886 43.444 14.8023 42.7762 13.9005L43.2252 13.4516C43.3725 13.3042 43.5721 13.2215 43.7801 13.2215H46.7021C48.5566 13.2215 50.3066 13.0633 51.9548 12.7466C53.6016 12.4298 55.4617 11.9012 57.534 11.159C58.2745 10.8974 59.1036 10.5876 60.0206 10.227C60.9361 9.8675 61.6453 9.58935 62.1479 9.39254C63.7394 8.73842 65.2995 8.12705 66.8264 7.55984C67.307 7.3851 67.6662 7.1676 67.9058 6.90595C68.1467 6.64431 68.2666 6.29459 68.2666 5.85797C68.2666 5.07326 67.8633 4.58319 67.0551 4.38614Z" fill="#F19A07"/>
<path d="M0.441966 5.79915C0.147322 6.10471 0 6.46419 0 6.87873C0 7.29305 0.147322 7.64834 0.441966 7.94298C0.735216 8.23763 1.09051 8.38495 1.50482 8.38495C1.91937 8.38495 2.27861 8.23763 2.58441 7.94298C2.88997 7.64834 3.04287 7.29305 3.04287 6.87873C3.04287 6.46419 2.88997 6.10471 2.58441 5.79915C2.27861 5.49358 1.91937 5.34068 1.50482 5.34068C1.09051 5.34068 0.735216 5.49358 0.441966 5.79915Z" fill="#F19A07"/>
<path d="M0.441966 9.39833C0.147322 9.70389 0 10.0648 0 10.4791C0 10.8936 0.147322 11.2475 0.441966 11.5422C0.735216 11.8368 1.09051 11.9841 1.50482 11.9841C1.91937 11.9841 2.27861 11.8368 2.58441 11.5422C2.88997 11.2475 3.04287 10.8936 3.04287 10.4791C3.04287 10.0648 2.88997 9.70389 2.58441 9.39833C2.27861 9.09392 1.91937 8.94126 1.50482 8.94126C1.09051 8.94126 0.735216 9.09392 0.441966 9.39833Z" fill="#F19A07"/>
<path d="M57.8246 16.2149C57.519 15.9202 57.1581 15.7729 56.7438 15.7729C56.3293 15.7729 55.9754 15.9202 55.6807 16.2149C55.3861 16.5095 55.2388 16.8634 55.2388 17.2777C55.2388 17.6923 55.3861 18.0529 55.6807 18.3587C55.9754 18.6629 56.3293 18.8158 56.7438 18.8158C57.1581 18.8158 57.519 18.6629 57.8246 18.3587C58.1301 18.0529 58.2816 17.6923 58.2816 17.2777C58.2816 16.8634 58.1301 16.5095 57.8246 16.2149Z" fill="#F19A07"/>
<path d="M28.0032 0.442794C27.6976 0.14815 27.3367 0.000827789 26.9224 0.000827789C26.5079 0.000827789 26.154 0.14815 25.8593 0.442794C25.5647 0.737438 25.4174 1.09134 25.4174 1.50565C25.4174 1.9202 25.5647 2.28083 25.8593 2.58663C26.154 2.8908 26.5079 3.0437 26.9224 3.0437C27.3367 3.0437 27.6976 2.8908 28.0032 2.58663C28.3076 2.28083 28.4602 1.9202 28.4602 1.50565C28.4602 1.09134 28.3076 0.737438 28.0032 0.442794ZM31.6023 0.442794C31.2968 0.14815 30.9359 0.000827789 30.5213 0.000827789C30.107 0.000827789 29.7531 0.14815 29.4585 0.442794C29.1638 0.737438 29.0165 1.09134 29.0165 1.50565C29.0165 1.9202 29.1638 2.28083 29.4585 2.58663C29.7531 2.8908 30.107 3.0437 30.5213 3.0437C30.9359 3.0437 31.2968 2.8908 31.6023 2.58663C31.9079 2.28083 32.0594 1.9202 32.0594 1.50565C32.0594 1.09134 31.9079 0.737438 31.6023 0.442794Z" fill="#F19A07"/>
</svg>
